<svg width="34" height="24" xmlns="http://www.w3.org/2000/svg" xmlns:xlink="http://www.w3.org/1999/xlink">
  <defs>
    <path id="a" d="M.017.268h33.84V24H.016z"/>
  </defs>
  <g fill="none" fill-rule="evenodd">
    <mask id="b" fill="#fff">
      <use xlink:href="#a"/>
    </mask>
    <path d="M33.149 3.974A4.243 4.243 0 0 0 30.156.976C27.516.268 16.928.268 16.928.268S6.341.268 3.701.976A4.243 4.243 0 0 0 .708 3.974C0 6.618 0 12.134 0 12.134s0 5.516.708 8.16A4.243 4.243 0 0 0 3.7 23.291C6.34 24 16.928 24 16.928 24s10.587 0 13.228-.709a4.243 4.243 0 0 0 2.993-2.997c.707-2.644.707-8.16.707-8.16s0-5.516-.707-8.16" fill="#D9252A" mask="url(#b)"/>
    <path fill="#FFFFFE" d="M13.377 17.023L22.295 12l-8.918-5.023v10.046"/>
  </g>
</svg>
